<svg width="12" height="12" viewBox="0 0 12 12" fill="none" xmlns="http://www.w3.org/2000/svg">
<g clip-path="url(#clip0_557_1859)">
<path d="M3 2C3 2.55229 2.55229 3 2 3C1.44771 3 1 2.55229 1 2C1 1.44771 1.44771 1 2 1C2.55229 1 3 1.44771 3 2Z" stroke="black"/>
<path d="M11 2C11 2.55229 10.5523 3 10 3C9.4477 3 9 2.55229 9 2C9 1.44771 9.4477 1 10 1C10.5523 1 11 1.44771 11 2Z" stroke="black"/>
<path d="M11 10C11 10.5523 10.5523 11 10 11C9.4477 11 9 10.5523 9 10C9 9.4477 9.4477 9 10 9C10.5523 9 11 9.4477 11 10Z" stroke="black"/>
<path d="M3 10C3 10.5523 2.55229 11 2 11C1.44771 11 1 10.5523 1 10C1 9.4477 1.44771 9 2 9C2.55229 9 3 9.4477 3 10Z" stroke="black"/>
<path d="M10 3V9M9 10H3M9 2H3M2 3V9" stroke="black" stroke-linecap="round" stroke-linejoin="round"/>
<path d="M5.32485 4.24022L4.78053 4.50661C4.09351 4.84282 3.75 5.0109 3.75 5.25C3.75 5.4891 4.09351 5.6572 4.78053 5.9934L5.32485 6.25975C5.6521 6.4199 5.81575 6.5 6 6.5C6.18425 6.5 6.3479 6.4199 6.67515 6.25975L7.21945 5.9934C7.9065 5.6572 8.25 5.4891 8.25 5.25C8.25 5.0109 7.9065 4.84282 7.21945 4.50661L6.67515 4.24022C6.3479 4.08007 6.18425 4 6 4C5.81575 4 5.6521 4.08007 5.32485 4.24022Z" stroke="black" stroke-linecap="round" stroke-linejoin="round"/>
<path d="M8.25 6.75C8.25 6.9891 7.9065 7.1572 7.21945 7.4934L6.67515 7.75975C6.3479 7.9199 6.18425 8 6 8C5.81575 8 5.6521 7.9199 5.32485 7.75975L4.78053 7.4934C4.09351 7.1572 3.75 6.9891 3.75 6.75" stroke="black" stroke-linecap="round" stroke-linejoin="round"/>
</g>
<defs>
<clipPath id="clip0_557_1859">
<rect width="12" height="12" fill="white"/>
</clipPath>
</defs>
</svg>
