<svg width="411" height="280" viewBox="0 0 411 280" fill="none" xmlns="http://www.w3.org/2000/svg">
<path d="M266.115 84.4372C295.412 84.4372 318.977 108.002 318.977 137.299C318.977 166.595 295.412 190.16 266.115 190.16H132.37C103.073 190.16 79.5083 166.595 79.5083 137.299C79.5083 108.002 103.073 84.4372 132.37 84.4372H266.115ZM266.115 52.593H132.37C85.2402 52.593 47.6641 90.8061 47.6641 137.299C47.6641 183.791 85.8771 222.004 132.37 222.004H266.115C313.245 222.004 350.821 183.791 350.821 137.299C350.821 90.8061 312.608 52.593 266.115 52.593Z" fill="url(#paint0_linear_976_580)"/>
<defs>
<linearGradient id="paint0_linear_976_580" x1="350.821" y1="137.299" x2="47.6641" y2="137.299" gradientUnits="userSpaceOnUse">
<stop stop-color="#41F461"/>
<stop offset="0.5" stop-color="#008CFF"/>
<stop offset="0.856676" stop-color="#0D0D0D"/>
</linearGradient>
</defs>
</svg>
